HIERARCHY
ROOT Hips
{
	OFFSET	0.000000	0.000000	0.000000
	CHANNELS 6 Xposition Yposition Zposition Zrotation Xrotation Yrotation
	JOINT LeftUpLeg
	{
		OFFSET	12.811937	-7.635976	0.557276
		CHANNELS 3 Zrotation Xrotation Yrotation
		JOINT LeftLeg
		{
			OFFSET	-0.429270	-42.206159	-1.204951
			CHANNELS 3 Zrotation Xrotation Yrotation
			JOINT LeftFoot
			{
				OFFSET	-2.112259	-42.464481	-3.973220
				CHANNELS 3 Zrotation Xrotation Yrotation
				JOINT LeftFootHeel
				{
					OFFSET	0.387196	-5.329707	-3.419729
					CHANNELS 3 Zrotation Xrotation Yrotation
					End Site
					{
						OFFSET	0.327567	-0.000003	16.505428
					}
				}
			}
		}
	}
	JOINT RightUpLeg
	{
		OFFSET	-12.811937	-7.635976	0.557276
		CHANNELS 3 Zrotation Xrotation Yrotation
		JOINT RightLeg
		{
			OFFSET	0.429270	-42.206159	-1.204951
			CHANNELS 3 Zrotation Xrotation Yrotation
			JOINT RightFoot
			{
				OFFSET	2.112259	-42.464481	-3.973220
				CHANNELS 3 Zrotation Xrotation Yrotation
				JOINT RightFootHeel
				{
					OFFSET	-0.387198	-5.329707	-3.419729
					CHANNELS 3 Zrotation Xrotation Yrotation
					End Site
					{
						OFFSET	-0.327566	-0.000003	16.505428
					}
				}
			}
		}
	}
	JOINT Spine
	{
		OFFSET	0.000000	13.731315	-1.007646
		CHANNELS 3 Zrotation Xrotation Yrotation
		JOINT Spine1
		{
			OFFSET	0.000000	12.091746	-0.604589
			CHANNELS 3 Zrotation Xrotation Yrotation
			JOINT LeftShoulder
			{
				OFFSET	5.746115	20.990027	-0.833816
				CHANNELS 3 Zrotation Xrotation Yrotation
				JOINT LeftArm
				{
					OFFSET	10.881538	-1.359258	0.219250
					CHANNELS 3 Zrotation Xrotation Yrotation
					JOINT LeftForeArm
					{
						OFFSET	4.390314	-31.537147	0.202818
						CHANNELS 3 Zrotation Xrotation Yrotation
						JOINT LeftHand
						{
							OFFSET	3.168650	-24.865023	5.373370
							CHANNELS 3 Zrotation Xrotation Yrotation
							End Site
							{
								OFFSET	1.457528	-10.806075	2.170267
							}
						}
					}
				}
			}
			JOINT RightShoulder
			{
				OFFSET	-5.746115	20.990027	-0.833816
				CHANNELS 3 Zrotation Xrotation Yrotation
				JOINT RightArm
				{
					OFFSET	-10.881538	-1.359258	0.219250
					CHANNELS 3 Zrotation Xrotation Yrotation
					JOINT RightForeArm
					{
						OFFSET	-4.390314	-31.537147	0.202818
						CHANNELS 3 Zrotation Xrotation Yrotation
						JOINT RightHand
						{
							OFFSET	-3.168650	-24.865023	5.373370
							CHANNELS 3 Zrotation Xrotation Yrotation
							End Site
							{
								OFFSET	-1.457528	-10.806075	2.170267
							}
						}
					}
				}
			}
			JOINT Neck
			{
				OFFSET	0.000000	27.075639	0.680489
				CHANNELS 3 Zrotation Xrotation Yrotation
				JOINT Head
				{
					OFFSET	0.000000	12.391287	1.239129
					CHANNELS 3 Zrotation Xrotation Yrotation
					End Site
					{
						OFFSET	0.000000	13.818691	-0.105853
					}
				}
			}
		}
	}
}
MOTION
Frames:     9
Frame Time: 0.016667
-3.002939	100.446484	2.022500	2.896974	1.538119	-2.246732	1.316417	-1.723140	0.118648	-0.805814	6.387553	4.023076	-2.494803	-4.257848	-2.649634	0.	0.	0.	-1.581237	1.322526	-0.024838	0.789523	-0.605206	2.590406	-2.108583	-1.948936	-1.457702	0.	0.	0.	-2.106112	2.956815	-0.295299	-0.201942	-4.206095	-0.833121	-0.084708	-0.091656	2.649337	-1.925693	2.660816	23.756811	-0.006166	-3.442296	-23.927420	-1.967996	-0.594765	-3.671080	-2.572687	-1.953088	5.251512	-45.482697	-35.989292	-56.176220	-56.434357	-66.186661	-54.313362	-63.337772	-6.492718	32.762981	4.286016	-4.931021	-1.769002	5.289917	1.064240	-13.239577	
-2.984759	100.442763	2.006910	2.858355	1.528221	-2.346791	1.316906	-1.810363	0.147841	-0.819903	6.612168	3.948435	-2.445884	-4.391968	-2.502619	0.	0.	0.	-1.554583	1.319611	0.034959	0.784235	-0.627762	2.550972	-2.089351	-1.917915	-1.375536	0.	0.	0.	-2.030213	2.952589	-0.385019	-0.106266	-4.136088	-0.805197	-0.042069	-0.109321	2.651967	-1.881674	3.129370	23.711832	-0.082880	-3.859748	-23.878508	-1.563958	-0.896215	-3.335384	-2.475591	-1.982916	5.237365	-44.844624	-36.586090	-56.547825	-57.357792	-68.079994	-54.279037	-65.118881	-6.954952	31.324364	4.166508	-4.958333	-1.652047	4.836355	1.098262	-13.072149	
-2.953115	100.447278	1.955652	2.841384	1.510119	-2.469147	1.302804	-1.871261	0.215518	-0.823360	6.782227	3.965955	-2.417879	-4.484034	-2.465040	0.	0.	0.	-1.574297	1.269487	-0.033025	0.803703	-0.593503	2.660174	-2.069390	-1.887695	-1.292589	0.	0.	0.	-1.964144	2.948459	-0.521976	-0.003079	-3.971302	-0.779731	0.021401	-0.248690	2.690302	-1.962904	3.311430	23.741827	0.116447	-3.925365	-23.822931	-1.404812	-1.001039	-3.171885	-2.377016	-2.099663	5.275922	-44.366100	-36.406307	-55.725822	-59.798923	-69.734459	-55.667709	-66.128769	-8.736383	31.302874	4.001608	-5.060026	-1.526947	4.399988	1.165607	-12.758516	
-2.906755	100.451852	1.943198	2.835313	1.487540	-2.598619	1.283425	-1.913440	0.274659	-0.832079	6.933613	4.037506	-2.394875	-4.570478	-2.466193	0.	0.	0.	-1.626881	1.275329	-0.070875	0.841307	-0.613028	2.732241	-2.045637	-1.856769	-1.194512	0.	0.	0.	-1.857799	2.935308	-0.840746	0.104269	-3.753724	-0.666564	0.048612	-0.477051	2.839391	-2.011179	3.499837	23.669739	0.340188	-3.849128	-23.595821	-1.243219	-0.983569	-3.093138	-2.324895	-2.207590	5.439627	-43.908779	-35.797344	-54.618450	-63.227760	-71.946266	-57.836948	-66.495392	-11.050930	32.251698	3.952181	-5.167299	-1.218050	3.798955	1.234552	-12.422318	
-2.836455	100.462936	1.886031	2.837675	1.474324	-2.666002	1.270024	-1.928647	0.295346	-0.838591	7.002183	4.073750	-2.383297	-4.611319	-2.455724	0.	0.	0.	-1.715275	1.249650	-0.288622	0.895780	-0.624118	2.845821	-2.005111	-1.812036	-1.019953	0.	0.	0.	-1.864243	2.946210	-0.772944	0.208954	-3.658001	-0.862617	0.048249	-0.596332	2.954827	-1.770037	3.670105	23.138643	0.226188	-3.753288	-22.987051	-0.754529	-0.342375	-3.077205	-2.106760	-2.163600	5.373129	-43.411427	-34.237682	-52.509453	-69.282745	-72.629143	-64.266197	-66.402809	-12.182738	32.954399	3.868053	-5.250350	-1.008216	3.554737	1.304578	-12.266288	
-2.813589	100.479505	1.855428	2.880710	1.312962	-2.919774	1.197166	-1.824608	0.250726	-0.893496	7.191813	4.320213	-2.340718	-4.750448	-2.405528	0.	0.	0.	-1.803375	1.349137	-0.197230	0.910251	-0.603024	2.911141	-1.981765	-1.783104	-0.918309	0.	0.	0.	-1.713242	3.083848	-0.987650	0.374264	-3.278752	-1.140702	0.089493	-1.014207	3.418388	-2.162695	3.726429	23.445148	1.156188	-3.362974	-22.869118	-1.458270	-1.062149	-3.151332	-2.421480	-2.566226	6.119946	-43.411427	-34.237682	-52.509453	-74.459122	-79.829124	-64.864342	-64.224754	-16.639866	36.316410	3.609545	-5.562572	-0.224063	2.672998	1.513685	-11.524582	
-2.812483	100.485183	1.849673	2.897936	1.264775	-2.981002	1.170981	-1.792591	0.214857	-0.906923	7.234080	4.417185	-2.333169	-4.778450	-2.405923	0.	0.	0.	-1.824545	1.394423	-0.134907	0.901516	-0.618775	2.862896	-1.970740	-1.769482	-0.869635	0.	0.	0.	-1.686763	3.140277	-1.005482	0.390951	-3.205866	-1.211384	0.109497	-1.088420	3.491772	-1.896081	3.810238	22.960264	1.062121	-3.200805	-22.282055	-0.973721	-0.259265	-3.261270	-2.193034	-2.500366	6.000926	-43.413368	-32.982784	-50.944443	-83.870049	-80.772011	-74.372398	-63.260502	-17.874964	37.392681	3.615711	-5.717176	-0.098338	2.430213	1.614561	-11.293329	
-2.786100	100.507081	1.758982	2.942958	1.139367	-3.170009	1.097561	-1.719023	0.090193	-0.939651	7.337887	4.692224	-2.314025	-4.837420	-2.367732	0.	0.	0.	-1.914470	1.405864	-0.197999	0.913978	-0.556009	2.984626	-1.940927	-1.728735	-0.735823	0.	0.	0.	-1.635639	3.352958	-0.981337	0.477127	-3.082379	-1.376709	0.124755	-1.265261	3.583256	-1.873717	3.814011	22.814880	1.508200	-2.848908	-21.750608	-0.755499	0.110134	-3.472335	-2.146194	-2.571742	6.059919	-43.658554	-30.794577	-48.793686	62.195320	-96.009781	72.864182	-59.525482	-21.957600	41.165565	3.632587	-5.971169	0.169311	1.743402	1.606885	-10.610008	
-2.773757	100.510007	1.736501	2.942958	1.139367	-3.170009	1.097561	-1.719023	0.090193	-0.939651	7.337887	4.692224	-2.314025	-4.837420	-2.367732	0.	0.	0.	-1.928061	1.392441	-0.255559	0.921348	-0.557328	3.004851	-1.932253	-1.714656	-0.697924	0.	0.	0.	-1.616514	3.390288	-1.029944	0.523181	-3.059695	-1.407129	0.116175	-1.306518	3.576476	-1.878826	3.804149	22.791733	1.462016	-2.835134	-21.641836	-0.510107	0.352600	-3.467662	-2.145849	-2.583000	6.053976	-43.702305	-30.889128	-48.757374	62.195320	-96.009781	72.864182	-59.525482	-21.957600	41.165565	3.625876	-6.014076	0.208347	1.697464	1.595366	-10.558182	
